<?xml version="1.0" encoding="UTF-8"?>
<svg xmlns="http://www.w3.org/2000/svg" viewBox="0 0 5659 900" width="100%" height="100%" preserveAspectRatio="xMidYMid meet">
<rect width="100%" height="100%" fill="#0a0a0a"/>
<g transform="translate(40,780) scale(1,-1)">
<g transform="translate(0.0,0)"><path d="M613.0 354.0 C613.0 583.0 504.0 726.0 331.0 726.0 C159.0 726.0 50.0 582.0 50.0 354.0 C50.0 127.0 159.0 -16.0 331.0 -16.0 C504.0 -16.0 613.0 127.0 613.0 354.0 Z" fill="#e8ebe4"/><path d="M140.0 354.0 C140.0 538.0 209.0 642.0 331.0 642.0 C454.0 642.0 523.0 538.0 523.0 354.0 C523.0 171.0 454.0 68.0 331.0 68.0 C209.0 68.0 140.0 171.0 140.0 354.0 Z" fill="#0a0a0a"/></g><g transform="translate(687.0,0)"><path d="M274.0 0.0 L274.0 710.0 L206.0 710.0 C206.0 626.0 178.0 600.0 100.0 600.0 L40.0 600.0 L40.0 526.0 L176.0 526.0 C183.0 526.0 188.0 521.0 188.0 514.0 L188.0 0.0 Z" fill="#e8ebe4"/></g><g transform="translate(1095.0,0)"><path d="M559.0 0.0 L559.0 84.0 L166.0 84.0 C170.0 138.0 236.0 212.0 364.0 280.0 C511.0 358.0 559.0 412.0 559.0 520.0 C559.0 642.0 473.0 726.0 327.0 726.0 C173.0 726.0 80.0 637.0 64.0 498.0 L154.0 492.0 C169.0 588.0 227.0 642.0 327.0 642.0 C421.0 642.0 469.0 591.0 469.0 518.0 C469.0 446.0 430.0 414.0 332.0 362.0 C119.0 249.0 60.0 150.0 60.0 0.0 Z" fill="#e8ebe4"/></g><g transform="translate(1738.0,0)"><path d="M563.0 198.0 C563.0 302.0 490.0 376.0 374.0 390.0 L374.0 372.0 C482.0 392.0 538.0 446.0 538.0 534.0 C538.0 652.0 450.0 726.0 306.0 726.0 C164.0 726.0 81.0 653.0 68.0 547.0 L158.0 541.0 C167.0 604.0 212.0 642.0 306.0 642.0 C400.0 642.0 448.0 603.0 448.0 530.0 C448.0 449.0 386.0 419.0 302.0 419.0 L246.0 419.0 L246.0 335.0 L302.0 335.0 C404.0 335.0 473.0 292.0 473.0 198.0 C473.0 102.0 393.0 68.0 301.0 68.0 C212.0 68.0 147.0 102.0 139.0 189.0 L50.0 183.0 C56.0 66.0 143.0 -16.0 301.0 -16.0 C455.0 -16.0 563.0 62.0 563.0 198.0 Z" fill="#e8ebe4"/></g><g transform="translate(2375.0,0)"><path d="M585.0 186.0 C585.0 288.0 524.0 356.0 346.0 400.0 C196.0 437.0 160.0 461.0 160.0 528.0 C160.0 596.0 216.0 642.0 304.0 642.0 C410.0 642.0 468.0 580.0 480.0 494.0 L570.0 500.0 C554.0 630.0 462.0 726.0 306.0 726.0 C160.0 726.0 70.0 643.0 70.0 524.0 C70.0 418.0 128.0 369.0 292.0 328.0 C462.0 286.0 495.0 246.0 495.0 180.0 C495.0 107.0 437.0 68.0 338.0 68.0 C224.0 68.0 159.0 127.0 145.0 233.0 L55.0 227.0 C67.0 83.0 172.0 -16.0 336.0 -16.0 C481.0 -16.0 585.0 62.0 585.0 186.0 Z" fill="#e8ebe4"/></g><g transform="translate(3039.0,0)"><path d="M514.0 36.0 L514.0 530.0 L434.0 530.0 L434.0 446.0 C410.0 505.0 345.0 542.0 271.0 542.0 C138.0 542.0 44.0 436.0 44.0 285.0 C44.0 134.0 140.0 28.0 275.0 28.0 C344.0 28.0 404.0 64.0 430.0 120.0 L430.0 34.0 C430.0 -44.0 377.0 -82.0 281.0 -82.0 C199.0 -82.0 163.0 -52.0 147.0 -2.0 L59.0 -8.0 C81.0 -101.0 167.0 -162.0 281.0 -162.0 C427.0 -162.0 514.0 -88.0 514.0 36.0 Z" fill="#e8ebe4"/><path d="M132.0 285.0 C132.0 394.0 186.0 462.0 279.0 462.0 C371.0 462.0 432.0 394.0 430.0 285.0 C429.0 176.0 370.0 108.0 279.0 108.0 C188.0 108.0 132.0 176.0 132.0 285.0 Z" fill="#0a0a0a"/></g><g transform="translate(3657.0,0)"><path d="M551.0 265.0 C551.0 435.0 463.0 542.0 323.0 542.0 C249.0 542.0 190.0 500.0 164.0 456.0 L164.0 710.0 L80.0 710.0 L80.0 0.0 L156.0 0.0 L159.0 80.0 C189.0 22.0 249.0 -12.0 323.0 -12.0 C463.0 -12.0 551.0 95.0 551.0 265.0 Z" fill="#e8ebe4"/><path d="M164.0 265.0 C164.0 388.0 222.0 462.0 320.0 462.0 C407.0 462.0 463.0 388.0 463.0 265.0 C463.0 144.0 407.0 68.0 318.0 68.0 C222.0 68.0 164.0 144.0 164.0 265.0 Z" fill="#0a0a0a"/></g><g transform="translate(4276.0,0)"><path d="M318.0 0.0 C533.0 0.0 653.0 127.0 653.0 354.0 C653.0 582.0 530.0 710.0 312.0 710.0 L92.0 710.0 L92.0 0.0 Z" fill="#e8ebe4"/><path d="M178.0 626.0 L312.0 626.0 C479.0 626.0 563.0 536.0 563.0 354.0 C563.0 174.0 479.0 84.0 312.0 84.0 L178.0 84.0 Z" fill="#0a0a0a"/></g><g transform="translate(4994.0,0)"><path d="M509.0 150.0 L419.0 157.0 C401.0 103.0 356.0 68.0 287.0 68.0 C195.0 68.0 138.0 125.0 132.0 239.0 L517.0 239.0 L517.0 264.0 C517.0 442.0 421.0 542.0 283.0 542.0 C137.0 542.0 44.0 433.0 44.0 265.0 C44.0 97.0 137.0 -12.0 287.0 -12.0 C399.0 -12.0 481.0 55.0 509.0 150.0 Z" fill="#e8ebe4"/><path d="M283.0 462.0 C361.0 462.0 417.0 415.0 425.0 313.0 L132.0 313.0 C146.0 411.0 201.0 462.0 283.0 462.0 Z" fill="#0a0a0a"/></g>
</g>
</svg>
